<svg width="756" height="139" viewBox="0 0 756 139" fill="none" xmlns="http://www.w3.org/2000/svg">
<path d="M0 90.6631L15.9672 88.9998C16.4107 93.9896 17.076 96.2072 19.0719 98.7575C22.2875 102.971 28.0534 105.3 35.2608 105.3C46.3491 105.3 53.0021 100.31 53.0021 91.9937C53.0021 87.4475 50.8953 83.6774 47.4579 81.7924C44.1315 80.0183 43.4661 79.9074 28.1643 76.3592C19.8481 74.4742 15.4127 72.7 11.421 69.5953C5.76592 65.16 2.88296 59.0614 2.88296 51.6323C2.88296 36.2195 15.3019 26.24 34.3737 26.24C47.0144 26.24 56.5503 30.1209 61.9836 37.4392C64.7557 41.0984 66.0863 44.4249 67.4169 50.3017L51.5606 52.1867C50.8953 48.4166 50.1191 46.5316 48.2341 44.314C45.3512 40.8766 40.4723 38.9916 34.3737 38.9916C24.7269 38.9916 18.1848 43.8704 18.1848 51.0778C18.1848 55.7349 20.6242 58.9505 25.7249 61.1682C28.1643 62.1661 29.0514 62.3879 41.3594 65.16C50.1191 67.045 55.4415 69.1518 59.4333 71.9238C65.7536 76.5809 68.6366 82.6795 68.6366 90.9957C68.6366 98.8684 66.1972 105.3 61.651 109.846C55.7742 115.501 47.0144 118.273 35.1499 118.273C26.0575 118.273 17.1869 116.055 11.8645 112.507C7.42916 109.513 4.21356 105.3 2.10678 99.8664C1.10883 97.3161 0.665298 95.2093 0 90.6631Z" fill="#4D00A4"/>
<path d="M88.5782 35.776H104.434C103.991 39.6569 103.658 44.4249 103.658 49.4146V52.852H108.315C113.527 52.852 115.966 52.7411 119.515 52.1867V65.2709C115.855 64.7165 113.749 64.6056 108.648 64.6056H103.658V98.9793C103.658 104.413 105.654 106.408 110.977 106.408C113.86 106.408 115.634 105.854 119.071 103.969L121.067 115.723C116.299 117.497 112.972 118.051 107.207 118.051C94.455 118.051 89.3544 113.505 89.3544 101.862V64.6056H85.1408C81.0382 64.6056 78.9314 64.7165 75.2723 65.2709V52.1867C78.4879 52.7411 80.5946 52.852 85.2517 52.852H89.3544V49.4146C89.3544 44.6466 89.0217 39.7678 88.5782 35.776Z" fill="#4D00A4"/>
<path d="M174.024 52.852H189.991C189.215 57.6199 189.104 61.0573 189.104 67.2668V102.084C189.104 108.183 189.326 111.953 189.991 116.499H174.911V110.622C174.911 108.959 174.911 108.626 175.022 105.854C168.923 114.503 162.825 117.719 152.291 117.719C146.636 117.719 142.644 116.721 138.985 114.503C132.886 110.622 130.003 104.413 130.003 95.3202V67.2668C130.003 61.1682 129.671 56.9546 129.116 52.852H145.194C144.529 57.8417 144.418 61.6117 144.418 67.2668V91.8828C144.418 98.314 146.081 102.417 149.519 104.523C151.182 105.411 153.511 106.076 155.617 106.076C163.601 106.076 169.921 100.643 174.911 89.6651V67.2668C174.911 61.8335 174.578 57.6199 174.024 52.852Z" fill="#4D00A4"/>
<path d="M253.622 116.499V111.066C253.622 109.735 253.622 108.515 253.732 107.074C247.967 115.168 242.09 118.051 231.334 118.051C223.572 118.051 217.695 116.277 212.817 112.396C205.387 106.63 201.285 96.5399 201.285 84.5645C201.285 64.2729 212.927 51.4105 231.223 51.4105C238.098 51.4105 243.753 53.0737 248.077 56.5111C250.073 58.0635 251.293 59.3941 253.732 62.6097C253.732 61.2791 253.732 61.2791 253.622 59.0614C253.511 58.2852 253.511 56.1785 253.511 54.2934V43.2051C253.511 36.5522 253.289 32.893 252.734 28.2359H268.369C267.815 33.5583 267.593 37.4392 267.593 43.0943V101.53C267.593 108.072 267.815 111.62 268.369 116.499H253.622ZM215.7 84.6754C215.7 97.8705 222.796 106.187 233.884 106.187C239.761 106.187 245.416 103.415 248.743 98.8684C251.515 95.2093 253.067 89.776 253.067 84.0101C253.067 78.5768 250.96 72.8109 247.745 69.2627C244.307 65.4926 238.652 63.0532 233.33 63.0532C222.574 63.0532 215.7 71.4803 215.7 84.6754Z" fill="#4D00A4"/>
<path d="M282.233 28.2359H298.533V42.3181H282.233V28.2359ZM282.233 52.852H298.422C297.867 56.9546 297.646 60.6138 297.646 67.3776V101.973C297.646 108.072 297.867 111.842 298.422 116.499H282.233C282.898 111.509 283.12 107.628 283.12 102.084V67.2668C283.12 61.1682 282.898 57.3982 282.233 52.852Z" fill="#4D00A4"/>
<path d="M502.836 116.499H486.093C486.758 112.174 486.98 107.85 486.98 102.084V40.9875H481.658C477.555 40.9875 474.339 41.2092 470.237 41.6528V27.5706C473.674 28.125 476.114 28.2359 481.325 28.2359H491.526C497.181 28.2359 498.845 28.125 502.836 27.6815C502.171 34.2236 501.949 39.3242 501.949 45.9772V102.084C501.949 107.961 502.171 111.953 502.836 116.499Z" fill="#4D00A4"/>
<path d="M526.667 99.0902L541.969 95.0984C543.299 98.314 544.075 99.7555 545.406 101.197C548.178 104.191 552.502 105.743 558.157 105.743C563.48 105.743 567.582 104.302 570.687 101.197C576.231 95.8746 578.782 87.891 579.336 74.8068C577.229 77.9115 576.01 79.2421 573.459 81.1271C568.47 84.5645 562.815 86.2278 555.496 86.2278C537.09 86.2278 525.336 74.9177 525.336 57.0655C525.336 45.7554 530.326 36.5522 539.418 31.008C544.519 27.7924 551.172 26.1292 558.823 26.1292C573.016 26.1292 584.659 34.4454 589.316 47.9731C591.422 53.9608 592.531 61.8335 592.531 70.9259C592.531 87.6692 588.096 102.306 580.778 109.402C574.901 115.279 567.693 117.829 557.159 117.829C547.845 117.829 541.303 115.834 535.759 111.398C531.989 108.404 529.882 105.521 526.667 99.0902ZM557.714 74.2524C568.58 74.2524 576.786 66.4906 576.786 56.1785C576.786 45.7554 569.135 38.3263 558.157 38.3263C547.513 38.3263 540.083 45.8663 540.083 56.5111C540.083 67.2668 546.958 74.2524 557.714 74.2524Z" fill="#4D00A4"/>
<path d="M680.674 82.5686V96.7617C676.571 96.2072 674.242 96.0964 669.585 95.9855H665.594V103.858C665.594 109.513 665.815 112.396 666.481 116.499H650.735C651.401 112.618 651.622 109.181 651.622 103.636V95.9855H620.908C614.366 95.9855 610.817 96.0964 607.047 96.429V82.7904C610.817 78.6877 612.037 77.2462 615.918 72.5891L642.197 40.4331C647.076 34.5563 648.85 32.2277 651.401 28.2359H666.37C665.704 34.6671 665.594 38.548 665.594 46.9752V83.3448H669.474C673.91 83.3448 676.571 83.123 680.674 82.5686ZM651.733 83.4557V60.5029C651.733 55.2914 651.844 51.7431 652.288 47.1969C650.07 50.4125 648.739 52.1867 644.748 57.0655L623.458 83.4557H651.733Z" fill="#4D00A4"/>
<path d="M755.399 27.6815V40.5439C751.851 43.9813 748.635 48.5275 743.867 56.5111C732.114 76.1374 726.237 93.1025 723.243 116.499H705.724C709.383 97.9814 712.709 87.3366 719.141 73.5871C724.241 62.6097 728.787 55.0696 738.545 41.3201H704.282C697.74 41.3201 694.303 41.5419 689.757 42.0963V27.4597C694.857 28.0142 698.405 28.2359 704.948 28.2359H740.208C748.525 28.2359 751.407 28.125 755.399 27.6815Z" fill="#4D00A4"/>
<path d="M438.595 20.3404C425.452 7.19699 408.021 0 389.467 0C370.913 0 353.456 7.22251 340.338 20.3404C327.195 33.4839 319.998 50.9149 319.998 69.4689C319.998 88.0228 327.221 105.479 340.338 118.597C353.482 131.741 370.913 138.938 389.467 138.938C408.021 138.938 425.477 131.715 438.595 118.597C451.739 105.454 458.936 88.0228 458.936 69.4689C458.936 50.9149 451.713 33.4584 438.595 20.3404ZM434.027 106.143L409.016 81.1321C407.077 84.3733 404.346 87.104 401.105 89.0437L426.115 114.054C417.489 121.149 406.77 125.82 395.031 126.943V91.5703C393.244 92.0041 391.355 92.2849 389.441 92.2849C387.527 92.2849 385.639 92.0552 383.852 91.5703V126.943C372.138 125.794 361.394 121.175 352.767 114.054L377.778 89.0437C374.537 87.104 371.806 84.3733 369.867 81.1321L344.856 106.143C337.735 97.5167 333.09 86.7978 331.968 75.058H367.34C366.906 73.2715 366.625 71.3829 366.625 69.4689C366.625 67.5548 366.855 65.6662 367.34 63.8797H331.942C333.09 52.1654 337.71 41.421 344.83 32.7948L369.841 57.8056C371.781 54.5644 374.511 51.8337 377.753 49.8941L352.742 24.8832C361.368 17.7628 372.087 13.1179 383.827 11.995V47.3674C385.613 46.9336 387.502 46.6529 389.416 46.6529C391.33 46.6529 393.219 46.8825 395.005 47.3674V11.995C406.719 13.1434 417.464 17.7628 426.09 24.8832L401.079 49.8941C404.32 51.8337 407.051 54.5644 408.991 57.8056L434.001 32.7948C441.096 41.421 445.767 52.1399 446.89 63.8797H411.517C411.951 65.6662 412.232 67.5548 412.232 69.4689C412.232 71.3829 412.002 73.2715 411.517 75.058H446.89C445.741 86.7723 441.122 97.5167 434.001 106.143H434.027Z" fill="#4D00A4"/>
<path d="M389.466 87.2844C399.305 87.2844 407.28 79.3089 407.28 69.4706C407.28 59.6323 399.305 51.6567 389.466 51.6567C379.628 51.6567 371.652 59.6323 371.652 69.4706C371.652 79.3089 379.628 87.2844 389.466 87.2844Z" fill="#4D00A4"/>
</svg>
